<svg width="21" height="22" viewBox="0 0 21 22" fill="none" xmlns="http://www.w3.org/2000/svg">
<path d="M9.42962 0.441716C10.0526 -0.147239 11.027 -0.147239 11.6499 0.441716L19.4766 7.84157C19.9609 8.29943 20.2353 8.93646 20.2353 9.60288V18.6023C20.2353 19.941 19.1501 21.0262 17.8114 21.0262H14.5796C13.2409 21.0262 12.1557 19.941 12.1557 18.6023V14.5625C12.1557 14.1164 11.794 13.7546 11.3477 13.7546H9.73181C9.28559 13.7546 8.92385 14.1164 8.92385 14.5625V18.6023C8.92385 19.941 7.83865 21.0262 6.49997 21.0262H3.26812C1.92944 21.0262 0.844238 19.941 0.844238 18.6023V9.60288C0.844238 8.93646 1.11862 8.29943 1.60288 7.84157L9.42962 0.441716ZM10.5398 1.61593L2.71304 9.01578C2.55162 9.16839 2.46016 9.38074 2.46016 9.60288V18.6023C2.46016 19.0485 2.8219 19.4103 3.26812 19.4103H6.49997C6.94619 19.4103 7.30793 19.0485 7.30793 18.6023V14.5625C7.30793 13.2239 8.39313 12.1387 9.73181 12.1387H11.3477C12.6864 12.1387 13.7716 13.2239 13.7716 14.5625V18.6023C13.7716 19.0485 14.1334 19.4103 14.5796 19.4103H17.8114C18.2576 19.4103 18.6194 19.0485 18.6194 18.6023V9.60288C18.6194 9.38074 18.5279 9.16839 18.3665 9.01578L10.5398 1.61593Z" fill="white"/>
<path d="M2 9L2.5 20L3.75 19.5C4.66667 19.6667 6.6 20 7 20C7.4 20 7.5 19.6667 7.5 19.5L8 18V15L8.5 13.5L9.5 13H11.5H12.5L13.5 14.5V18.5L14 19.5H19V9L10.5 1L2 9Z" fill="white"/>
</svg>
