<svg width="28" height="28" viewBox="0 0 28 28" fill="none" xmlns="http://www.w3.org/2000/svg">
<mask id="mask0_2002_531" style="mask-type:alpha" maskUnits="userSpaceOnUse" x="0" y="0" width="28" height="28">
<rect width="28" height="28" fill="#D9D9D9"/>
</mask>
<g mask="url(#mask0_2002_531)">
<path d="M14 18.667C15.4583 18.667 16.6979 18.1566 17.7187 17.1357C18.7395 16.1149 19.25 14.8753 19.25 13.417C19.25 11.9587 18.7395 10.7191 17.7187 9.69824C16.6979 8.67741 15.4583 8.16699 14 8.16699C12.5416 8.16699 11.302 8.67741 10.2812 9.69824C9.26038 10.7191 8.74996 11.9587 8.74996 13.417C8.74996 14.8753 9.26038 16.1149 10.2812 17.1357C11.302 18.1566 12.5416 18.667 14 18.667ZM14 16.567C13.125 16.567 12.3812 16.2607 11.7687 15.6482C11.1562 15.0357 10.85 14.292 10.85 13.417C10.85 12.542 11.1562 11.7982 11.7687 11.1857C12.3812 10.5732 13.125 10.267 14 10.267C14.875 10.267 15.6187 10.5732 16.2312 11.1857C16.8437 11.7982 17.15 12.542 17.15 13.417C17.15 14.292 16.8437 15.0357 16.2312 15.6482C15.6187 16.2607 14.875 16.567 14 16.567ZM14 22.167C11.1611 22.167 8.57496 21.3746 6.24163 19.7899C3.90829 18.2052 2.21663 16.0809 1.16663 13.417C2.21663 10.7531 3.90829 8.6288 6.24163 7.04408C8.57496 5.45935 11.1611 4.66699 14 4.66699C16.8388 4.66699 19.425 5.45935 21.7583 7.04408C24.0916 8.6288 25.7833 10.7531 26.8333 13.417C25.7833 16.0809 24.0916 18.2052 21.7583 19.7899C19.425 21.3746 16.8388 22.167 14 22.167ZM14 19.8337C16.1972 19.8337 18.2145 19.2552 20.052 18.0982C21.8895 16.9413 23.2944 15.3809 24.2666 13.417C23.2944 11.4531 21.8895 9.89269 20.052 8.73574C18.2145 7.5788 16.1972 7.00033 14 7.00033C11.8027 7.00033 9.78538 7.5788 7.94788 8.73574C6.11038 9.89269 4.70551 11.4531 3.73329 13.417C4.70551 15.3809 6.11038 16.9413 7.94788 18.0982C9.78538 19.2552 11.8027 19.8337 14 19.8337Z" fill="white"/>
</g>
<path d="M3 14L4 11.5L8 8.5L10.5 7H12.8571L13 6L17.5 7L19.5 8L22 10.25L23.5 12L25.5 14.5L23 18L20.5 20L16.5 21.5H12L8 19.5L5.5 17.5L4 15.5L3 14Z" fill="white"/>
<circle cx="14" cy="14" r="6" fill="black"/>
</svg>
