<svg width="17" height="22" viewBox="0 0 17 22" fill="none" xmlns="http://www.w3.org/2000/svg">
<path d="M13.8125 11C15.5729 11 17 12.4775 17 14.3C17 16.7554 16.0247 18.7226 14.4242 20.0526C12.849 21.3616 10.7378 22 8.5 22C6.26221 22 4.15102 21.3616 2.57582 20.0526C0.975311 18.7226 0 16.7554 0 14.3C0 12.5847 1.26411 11.175 2.88048 11.0151L3.18746 11H13.8125ZM13.8125 13.2H3.18746C2.60072 13.2 2.125 13.6925 2.125 14.3C2.125 16.0972 2.81463 17.43 3.90596 18.3369C5.02261 19.2648 6.63017 19.8 8.5 19.8C10.3698 19.8 11.9774 19.2648 13.094 18.3369C14.1854 17.43 14.875 16.0972 14.875 14.3C14.875 13.76 14.4991 13.3109 14.0035 13.2177L13.8125 13.2ZM8.5 0C10.8472 0 12.75 1.96995 12.75 4.4C12.75 6.83005 10.8472 8.8 8.5 8.8C6.15279 8.8 4.25 6.83005 4.25 4.4C4.25 1.96995 6.15279 0 8.5 0ZM8.5 2.2C7.32641 2.2 6.375 3.18498 6.375 4.4C6.375 5.61502 7.32641 6.6 8.5 6.6C9.6736 6.6 10.625 5.61502 10.625 4.4C10.625 3.18498 9.6736 2.2 8.5 2.2Z" fill="white"/>
<circle cx="8.5" cy="4.5" r="2.5" fill="white"/>
<path d="M3.5 12.5L1.5 13L1 13.5L2 16.5L3 18.5L4.5 19.5C5.33333 19.8333 7.1 20.5 7.5 20.5H11C11.8 20.5 12.6667 19.8333 13 19.5L15 16.5L15.5 15L15 13L9 12L3.5 12.5Z" fill="white"/>
</svg>
