<svg width="126" height="23" viewBox="0 0 126 23" fill="none" xmlns="http://www.w3.org/2000/svg">
<path d="M20.7193 17.8953V22.9864H20.0721V17.8953H20.7193Z" fill="white"/>
<path d="M26.0703 19.581H26.7105V22.9864H26.0703V22.6058C25.7819 22.8437 25.4162 22.9864 25.0011 22.9864C24.0726 22.9864 23.3129 22.2387 23.3129 21.2939C23.3129 20.3695 24.0726 19.615 25.0011 19.615C25.4162 19.615 25.7819 19.7577 26.0703 19.9956V19.581ZM25.0011 22.3679C25.5428 22.3679 25.993 21.9668 26.0703 21.4434V21.158C25.993 20.6346 25.5428 20.2335 25.0011 20.2335C24.4103 20.2335 23.9249 20.7161 23.9249 21.2939C23.9249 21.8853 24.4103 22.3679 25.0011 22.3679Z" fill="white"/>
<path d="M30.4787 20.9201C31.1329 20.9948 31.5549 21.3959 31.5549 21.9464C31.5549 22.5174 31.0766 22.9796 30.4576 22.9796H30.3169C29.8878 22.9796 29.4658 22.7825 29.2477 22.4766L29.2125 22.4358L29.508 21.9464L29.5853 22.062C29.7471 22.3067 30.0777 22.4086 30.4435 22.4154H30.4576C30.746 22.4154 30.964 22.2115 30.964 21.9464C30.964 21.7085 30.8163 21.5726 30.4435 21.5182C29.8948 21.4978 29.2407 21.1987 29.2407 20.5666C29.2407 20.0228 29.6909 19.5742 30.2325 19.5742H30.3028C30.6616 19.5742 31.0414 19.7373 31.2384 19.9752L31.2806 20.0228L30.964 20.5666L30.8796 20.4714C30.7108 20.2811 30.5209 20.186 30.3028 20.1792C30.0707 20.1792 29.8526 20.3015 29.8526 20.5666C29.8526 20.7025 29.916 20.8997 30.4787 20.9201Z" fill="white"/>
<path d="M37.0677 21.2055C37.0677 21.3007 37.0677 21.4027 37.0536 22.9796H36.4276V21.0492C36.2939 20.5938 35.9141 20.2743 35.4358 20.2743C34.9645 20.2743 34.5846 20.6006 34.4439 21.0356L34.4369 22.9796H33.8179L33.7898 22.9728V17.8885H34.4439V20.0024C34.7253 19.7849 35.0629 19.649 35.4358 19.649C36.2869 19.649 36.9762 20.3423 37.0677 21.2055Z" fill="white"/>
<path d="M41.4384 19.581C42.3951 19.581 43.1688 20.3423 43.1688 21.2939C43.1688 21.4095 43.1618 21.5046 43.1407 21.593H40.3974C40.524 22.0552 40.946 22.3815 41.4384 22.3815C41.6706 22.3815 41.8675 22.3203 42.0293 22.2047H42.9016C42.5991 22.6941 42.0574 23 41.4384 23C40.5029 23 39.7221 22.2455 39.7221 21.2939C39.7221 20.3423 40.5029 19.581 41.4384 19.581ZM41.4384 20.1996C40.939 20.1996 40.531 20.5326 40.3974 20.988H42.4936C42.367 20.5394 41.9379 20.1996 41.4384 20.1996Z" fill="white"/>
<path d="M46.8964 20.9201C47.5505 20.9948 47.9726 21.3959 47.9726 21.9464C47.9726 22.5174 47.4943 22.9796 46.8753 22.9796H46.7346C46.3055 22.9796 45.8834 22.7825 45.6654 22.4766L45.6302 22.4358L45.9256 21.9464L46.003 22.062C46.1648 22.3067 46.4954 22.4086 46.8612 22.4154H46.8753C47.1637 22.4154 47.3817 22.2115 47.3817 21.9464C47.3817 21.7085 47.234 21.5726 46.8612 21.5182C46.3125 21.4978 45.6583 21.1987 45.6583 20.5666C45.6583 20.0228 46.1085 19.5742 46.6502 19.5742H46.7205C47.0792 19.5742 47.4591 19.7373 47.6561 19.9752L47.6983 20.0228L47.3817 20.5666L47.2973 20.4714C47.1285 20.2811 46.9386 20.186 46.7205 20.1792C46.4884 20.1792 46.2703 20.3015 46.2703 20.5666C46.2703 20.7025 46.3336 20.8997 46.8964 20.9201Z" fill="white"/>
<path d="M0.68935 22.3067H1.28022C2.25797 22.3067 3.03877 21.5522 3.03877 20.6074C3.03877 19.683 2.25797 18.9081 1.28022 18.9081H0.68935V22.3067ZM3.74219 20.6074C3.74219 21.9057 2.65892 22.9864 1.31539 22.9864H0V18.2352L1.31539 18.242C2.65892 18.2623 3.74219 19.3295 3.74219 20.6074Z" fill="white"/>
<path d="M7.08139 18.2284V22.9932H6.39907V18.2284H7.08139Z" fill="white"/>
<path d="M11.9079 20.9472V22.9864H11.1974V20.9472L9.60067 18.2148H10.3744L11.521 20.2607L12.745 18.2148H13.5117L11.9079 20.9472Z" fill="white"/>
<path d="M10.1406 12.0232H9.46801L1.5212 1.2827V10.8089C1.60379 11.0711 1.75718 11.322 1.98137 11.5614C2.21736 11.7894 2.47694 11.9434 2.76012 12.0232H0.122985C0.394368 11.9434 0.648053 11.7894 0.884038 11.5614C1.12002 11.322 1.27341 11.0711 1.34421 10.8089V1.02616C1.22622 0.820927 1.07283 0.638499 0.884038 0.478874C0.707049 0.307847 0.512361 0.193829 0.299974 0.13682H2.44154L9.96358 10.3129V1.36821C9.88099 1.10597 9.7217 0.855132 9.48571 0.615695C9.26152 0.376258 9.00784 0.216633 8.72466 0.13682H11.3618C11.0904 0.216633 10.8367 0.376258 10.6007 0.615695C10.3766 0.855132 10.2232 1.10597 10.1406 1.36821V12.0232Z" fill="white"/>
<path d="M24.0909 12.0232H20.1971C20.4213 11.9662 20.6101 11.8578 20.7635 11.6982C20.9169 11.5272 20.9936 11.3334 20.9936 11.1167V10.997L19.9317 8.48292H14.5335L13.4893 10.997V11.1167C13.4893 11.3334 13.566 11.5272 13.7193 11.6982C13.8727 11.8578 14.0615 11.9662 14.2857 12.0232H11.7725C12.0792 11.9548 12.386 11.8122 12.6928 11.5956C12.9996 11.379 13.2415 11.0768 13.4185 10.6892L17.1352 1.79578L16.9936 1.43662C16.8403 1.15158 16.6397 0.883637 16.3919 0.632798C16.1559 0.370557 15.9081 0.205232 15.6485 0.13682H18.0379L22.4449 10.6892C22.6219 11.0768 22.8638 11.379 23.1706 11.5956C23.4773 11.8122 23.7841 11.9548 24.0909 12.0232ZM19.8609 8.31189L17.2414 2.03522L14.6043 8.31189H19.8609Z" fill="white"/>
<path d="M29.7225 12.0232H25.8641C26.1355 11.9548 26.3833 11.835 26.6075 11.664C26.8435 11.4816 27.0028 11.2592 27.0853 10.997V0.307847H26.4482C25.693 0.307847 25.0087 0.490275 24.3951 0.855132C23.7815 1.20859 23.2152 1.64756 22.696 2.17204L23.05 0.13682H32.5366L32.8906 2.17204C32.3714 1.64756 31.8051 1.20859 31.1915 0.855132C30.5779 0.490275 29.8936 0.307847 29.1384 0.307847H28.5013V10.997C28.5721 11.2592 28.7254 11.4816 28.9614 11.664C29.1974 11.835 29.4511 11.9548 29.7225 12.0232Z" fill="white"/>
<path d="M44.5898 12.0232H40.6961C40.9203 11.9662 41.1091 11.8578 41.2624 11.6982C41.4158 11.5272 41.4925 11.3334 41.4925 11.1167V10.997L40.4306 8.48292H35.0324L33.9882 10.997V11.1167C33.9882 11.3334 34.0649 11.5272 34.2183 11.6982C34.3717 11.8578 34.5605 11.9662 34.7846 12.0232H32.2714C32.5782 11.9548 32.885 11.8122 33.1917 11.5956C33.4985 11.379 33.7404 11.0768 33.9174 10.6892L37.6342 1.79578L37.4926 1.43662C37.3392 1.15158 37.1386 0.883637 36.8908 0.632798C36.6548 0.370557 36.407 0.205232 36.1475 0.13682H38.5368L42.9438 10.6892C43.1208 11.0768 43.3627 11.379 43.6695 11.5956C43.9763 11.8122 44.2831 11.9548 44.5898 12.0232ZM40.3598 8.31189L37.7404 2.03522L35.1032 8.31189H40.3598Z" fill="white"/>
<path d="M53.9147 12.0232H45.6493C45.9207 11.9548 46.1744 11.835 46.4103 11.664C46.6463 11.4816 46.7997 11.2592 46.8705 10.997V1.16298C46.7997 0.900739 46.6463 0.684106 46.4103 0.513079C46.1744 0.330651 45.9207 0.205232 45.6493 0.13682H49.5077C49.2363 0.205232 48.9826 0.330651 48.7466 0.513079C48.5224 0.684106 48.369 0.900739 48.2864 1.16298V11.8521H49.8085C50.5637 11.8521 51.366 11.6184 52.2156 11.1509C53.0651 10.6835 53.7672 10.1818 54.3218 9.6459L53.9147 12.0232Z" fill="white"/>
<path d="M59.4864 12.0232H55.628C55.8994 11.9548 56.1531 11.835 56.3891 11.664C56.6251 11.4816 56.7785 11.2592 56.8492 10.997V1.16298C56.7785 0.900739 56.6251 0.684106 56.3891 0.513079C56.1531 0.330651 55.8994 0.205232 55.628 0.13682H59.4864C59.215 0.205232 58.9613 0.330651 58.7253 0.513079C58.5011 0.684106 58.3478 0.900739 58.2652 1.16298V10.997C58.3478 11.2592 58.5011 11.4816 58.7253 11.664C58.9613 11.835 59.215 11.9548 59.4864 12.0232Z" fill="white"/>
<path d="M69.3762 12.0232H60.7037C60.9751 11.9548 61.2288 11.835 61.4648 11.664C61.7008 11.4816 61.8542 11.2592 61.925 10.997V1.16298C61.8542 0.900739 61.7008 0.684106 61.4648 0.513079C61.2288 0.330651 60.9751 0.205232 60.7037 0.13682H69.3054L69.6594 2.17204C69.1402 1.64756 68.5149 1.20859 67.7833 0.855132C67.0635 0.490275 66.3202 0.307847 65.5532 0.307847H63.3409V6.00303H66.1727C66.4795 5.93462 66.8276 5.83771 67.2169 5.71229C67.6063 5.57547 67.9544 5.42724 68.2612 5.26762C68.5679 5.10799 68.7508 4.95407 68.8098 4.80585V7.35414C68.7508 7.20592 68.5679 7.05199 68.2612 6.89237C67.9544 6.73274 67.6063 6.59022 67.2169 6.4648C66.8276 6.33938 66.4795 6.24247 66.1727 6.17406H63.3409V11.8521H65.4824C66.2376 11.8521 66.9986 11.6526 67.7656 11.2535C68.5326 10.8431 69.1874 10.3756 69.7302 9.85113L69.3762 12.0232Z" fill="white"/>
<path d="M80.3335 12.0403H76.1211C76.3925 11.9605 76.6462 11.835 76.8822 11.664C77.1182 11.4816 77.2716 11.2649 77.3424 11.0141V1.16298C77.2716 0.912141 77.1182 0.701209 76.8822 0.530182C76.6462 0.347754 76.3925 0.222334 76.1211 0.153924H80.8114C82.1447 0.153924 83.1653 0.347754 83.8733 0.735414C84.593 1.11167 84.9529 1.75587 84.9529 2.66801C84.9529 3.12408 84.8172 3.51745 84.5458 3.8481C84.2745 4.17875 83.9264 4.4809 83.5016 4.75454C83.0768 5.01678 82.6166 5.27902 82.1211 5.54126C81.5665 5.8263 81.0355 6.13415 80.5282 6.4648C80.0208 6.79545 79.596 7.18311 79.2539 7.62778C78.9235 8.06105 78.7583 8.59693 78.7583 9.23543V11.0141C78.8645 11.322 79.071 11.55 79.3777 11.6982C79.6137 11.8122 79.9323 11.9263 80.3335 12.0403ZM78.7583 8.14086C78.9707 7.59358 79.2952 7.14321 79.7317 6.78975C80.1683 6.4363 80.6403 6.11705 81.1476 5.83201C81.5606 5.60397 81.9441 5.36453 82.2981 5.11369C82.6521 4.85145 82.9411 4.5436 83.1653 4.19015C83.4013 3.82529 83.5193 3.37492 83.5193 2.83904C83.5193 1.9611 83.2538 1.3226 82.7228 0.923543C82.2037 0.524481 81.5665 0.32495 80.8114 0.32495H78.7583V8.14086Z" fill="white"/>
<path d="M96.01 12.0232H92.1163C92.3405 11.9662 92.5292 11.8578 92.6826 11.6982C92.836 11.5272 92.9127 11.3334 92.9127 11.1167V10.997L91.8508 8.48292H86.4526L85.4084 10.997V11.1167C85.4084 11.3334 85.4851 11.5272 85.6385 11.6982C85.7919 11.8578 85.9806 11.9662 86.2048 12.0232H83.6916C83.9984 11.9548 84.3051 11.8122 84.6119 11.5956C84.9187 11.379 85.1606 11.0768 85.3376 10.6892L89.0544 1.79578L88.9128 1.43662C88.7594 1.15158 88.5588 0.883637 88.311 0.632798C88.075 0.370557 87.8272 0.205232 87.5676 0.13682H89.957L94.364 10.6892C94.541 11.0768 94.7829 11.379 95.0897 11.5956C95.3965 11.8122 95.7032 11.9548 96.01 12.0232ZM91.78 8.31189L89.1605 2.03522L86.5234 8.31189H91.78Z" fill="white"/>
<path d="M101.282 12.0232H97.0695C97.3409 11.9548 97.5945 11.835 97.8305 11.664C98.0665 11.4816 98.2199 11.2592 98.2907 10.997V1.16298C98.2199 0.900739 98.0665 0.684106 97.8305 0.513079C97.5945 0.330651 97.3409 0.205232 97.0695 0.13682H101.76C103.093 0.13682 104.114 0.330651 104.822 0.718311C105.541 1.10597 105.901 1.75587 105.901 2.66801C105.901 3.11268 105.766 3.50034 105.494 3.83099C105.223 4.16165 104.875 4.46379 104.45 4.73743C104.025 5.01108 103.565 5.27332 103.069 5.52416C102.515 5.8092 101.984 6.11705 101.477 6.4477C100.969 6.77835 100.544 7.16601 100.202 7.61068C99.8718 8.04395 99.7066 8.57983 99.7066 9.21833V10.997C99.8128 11.3277 100.031 11.5671 100.361 11.7153C100.692 11.8635 100.999 11.9662 101.282 12.0232ZM99.7066 8.12376C99.919 7.57648 100.243 7.12611 100.68 6.77265C101.117 6.4192 101.589 6.09995 102.096 5.8149C102.509 5.58687 102.892 5.34743 103.246 5.09659C103.6 4.83435 103.889 4.5265 104.114 4.17305C104.35 3.80819 104.468 3.35782 104.468 2.82194C104.468 1.9554 104.202 1.3226 103.671 0.923543C103.152 0.513079 102.515 0.307847 101.76 0.307847H99.7066V8.12376Z" fill="white"/>
<path d="M116.958 12.0232H113.065C113.289 11.9662 113.478 11.8578 113.631 11.6982C113.784 11.5272 113.861 11.3334 113.861 11.1167V10.997L112.799 8.48292H107.401L106.357 10.997V11.1167C106.357 11.3334 106.433 11.5272 106.587 11.6982C106.74 11.8578 106.929 11.9662 107.153 12.0232H104.64C104.947 11.9548 105.253 11.8122 105.56 11.5956C105.867 11.379 106.109 11.0768 106.286 10.6892L110.003 1.79578L109.861 1.43662C109.708 1.15158 109.507 0.883637 109.259 0.632798C109.023 0.370557 108.776 0.205232 108.516 0.13682H110.905L115.312 10.6892C115.489 11.0768 115.731 11.379 116.038 11.5956C116.345 11.8122 116.652 11.9548 116.958 12.0232ZM112.728 8.31189L110.109 2.03522L107.472 8.31189H112.728Z" fill="white"/>
<path d="M122.071 12.2284C121.398 12.2284 120.708 12.1828 120 12.0916C119.304 12.0004 118.732 11.8977 118.283 11.7837V9.16702C118.72 9.96515 119.274 10.6493 119.947 11.2193C120.62 11.778 121.327 12.0574 122.071 12.0574C122.909 12.0574 123.563 11.8407 124.035 11.4075C124.507 10.9628 124.743 10.3756 124.743 9.6459C124.743 9.07581 124.602 8.60264 124.319 8.22638C124.047 7.83872 123.693 7.50236 123.257 7.21732C122.82 6.93228 122.277 6.61873 121.628 6.27667L121.31 6.08855C120.696 5.75789 120.171 5.44434 119.735 5.1479C119.31 4.85145 118.979 4.5265 118.743 4.17305C118.507 3.80819 118.389 3.34642 118.389 2.78773C118.389 1.944 118.708 1.2713 119.345 0.769619C119.994 0.25654 120.82 0 121.823 0C122.519 0 123.209 0.0456068 123.894 0.13682C124.59 0.216633 125.162 0.319249 125.611 0.444668V3.06137C125.174 2.25185 124.625 1.56774 123.965 1.00906C123.304 0.45037 122.59 0.171026 121.823 0.171026C121.139 0.171026 120.572 0.342053 120.124 0.684106C119.676 1.02616 119.451 1.48223 119.451 2.05232C119.451 2.47418 119.593 2.85044 119.876 3.18109C120.254 3.67137 120.991 4.22436 122.089 4.84005L123.08 5.42154C123.634 5.72939 124.13 6.03724 124.566 6.34508C125.015 6.65293 125.363 7.01209 125.611 7.42255C125.87 7.83302 126 8.3575 126 8.996C126 9.93094 125.658 10.7063 124.973 11.322C124.301 11.9263 123.333 12.2284 122.071 12.2284Z" fill="white"/>
</svg>
