<svg width="192" height="265" viewBox="0 0 192 265" fill="none" xmlns="http://www.w3.org/2000/svg">
<path d="M134.45 178.028C129.774 165.907 122.7 155.958 113.228 148.183C103.761 140.412 93.5361 133.406 82.5525 127.165C73.615 122.177 65.3124 116.863 57.6388 111.229C49.9707 105.594 43.6231 98.8084 38.5959 90.8659C33.569 82.9293 31.0027 73.0019 30.8972 61.0895C30.7264 41.8324 36.2562 27.6524 47.4805 18.5546C58.7106 9.4623 72.4531 4.83899 88.7079 4.69574L132.91 4.30561L134.45 178.028ZM101.306 265L192 264.2C186.144 262.736 180.658 260.058 175.545 256.176C170.432 252.294 167.085 247.44 165.503 241.625L163.565 23.0449C165.044 17.2024 168.305 12.2954 173.348 8.32391C178.392 4.3526 183.829 1.57776 189.658 -8.29023e-06L88.6743 0.890878C59.9676 1.14392 37.968 5.65209 22.6767 14.4039C7.38507 23.1559 -0.176474 37.6692 0.00312772 57.9385C0.0907684 67.8266 3.08886 76.4171 8.99738 83.7157C14.9061 91.0141 22.4611 97.6622 31.6625 103.665C40.8641 109.668 50.8172 115.404 61.5334 120.884C73.5313 127.117 85.0292 133.863 96.0162 141.111C107.003 148.364 116.16 156.84 123.487 166.532C130.814 176.223 134.54 188.165 134.666 202.356L135.016 241.893C132.797 249.263 128.149 254.625 121.06 257.984C113.976 261.343 107.393 263.68 101.306 265Z" fill="black"/>
</svg>
