<svg width="229" height="169" viewBox="0 0 229 169" fill="none" xmlns="http://www.w3.org/2000/svg">
<path d="M75.0824 117.591C85.3408 113.344 93.6935 107.092 100.14 98.8358C106.583 90.5841 112.356 81.7006 117.461 72.1842C121.537 64.4426 125.905 57.2368 130.56 50.5619C135.215 43.8917 140.881 38.3264 147.562 33.8656C154.238 29.4051 162.666 27.0065 172.841 26.67C189.289 26.1258 201.517 30.5586 209.522 39.9635C217.522 49.3734 221.756 61.023 222.214 74.9124L223.462 112.682L75.0824 117.591ZM0.0959915 91.0623L2.65572 168.559C3.78514 163.523 5.95982 158.78 9.1703 154.33C12.3808 149.879 16.4583 146.918 21.3939 145.446L208.087 139.27C213.109 140.412 217.369 143.098 220.866 147.327C224.363 151.555 226.846 156.144 228.314 161.094L225.464 74.805C224.654 50.2757 220.348 31.5667 212.554 18.6788C204.761 5.7906 192.206 -0.371832 174.894 0.200832C166.448 0.480221 159.171 3.22023 153.058 8.42095C146.945 13.6218 141.422 20.2163 136.484 28.2045C131.547 36.1929 126.852 44.8181 122.392 54.0902C117.315 64.4732 111.79 74.4395 105.825 83.9795C99.8561 93.5197 92.8048 101.521 84.6769 107.983C76.5486 114.446 66.4239 117.878 54.303 118.279L20.5337 119.396C14.1914 117.652 9.51486 113.789 6.49849 107.8C3.4824 101.815 1.34996 96.2375 0.0959915 91.0623Z" fill="black"/>
</svg>
