<svg width="11" height="11" viewBox="0 0 11 11" fill="none" xmlns="http://www.w3.org/2000/svg">
<path d="M4.25718 8.09364L5.77252 7.17962L7.28786 8.10566L6.89099 6.37385L8.22593 5.2193L6.47006 5.06296L5.77252 3.42735L5.07498 5.05093L3.31911 5.20727L4.65405 6.37385L4.25718 8.09364ZM2.80197 10.1021L3.58369 6.72262L0.961914 4.4496L4.42555 4.14894L5.77252 0.961914L7.11949 4.14894L10.5831 4.4496L7.96135 6.72262L8.74307 10.1021L5.77252 8.31012L2.80197 10.1021Z" fill="#1C1B1F"/>
<path d="M4.25718 8.09364L5.77252 7.17962L7.28786 8.10566L6.89099 6.37385L8.22593 5.2193L6.47006 5.06296L5.77252 3.42735L5.07498 5.05093L3.31911 5.20727L4.65405 6.37385L4.25718 8.09364ZM2.80197 10.1021L3.58369 6.72262L0.961914 4.4496L4.42555 4.14894L5.77252 0.961914L7.11949 4.14894L10.5831 4.4496L7.96135 6.72262L8.74307 10.1021L5.77252 8.31012L2.80197 10.1021Z" stroke="#A8A0A0"/>
</svg>
